<svg width="192" height="192" viewBox="0 0 192 192" fill="none" xmlns="http://www.w3.org/2000/svg">
  <defs>
    <linearGradient id="bg-gradient" x1="0%" y1="0%" x2="100%" y2="100%">
      <stop offset="0%" style="stop-color:#10b981;stop-opacity:1" />
      <stop offset="100%" style="stop-color:#059669;stop-opacity:1" />
    </linearGradient>
  </defs>
  <rect width="192" height="192" rx="32" fill="url(#bg-gradient)"/>
  <circle cx="96" cy="75" r="25" fill="white" opacity="0.9"/>
  <path d="M86 70 L86 80 A6 6 0 0 0 92 86 L100 86 A6 6 0 0 0 106 80 L106 70 A10 10 0 0 0 96 60 A10 10 0 0 0 86 70 Z" fill="#059669"/>
  <rect x="80" y="120" width="32" height="8" rx="4" fill="white" opacity="0.9"/>
  <rect x="70" y="135" width="52" height="6" rx="3" fill="white" opacity="0.7"/>
  <rect x="75" y="148" width="42" height="6" rx="3" fill="white" opacity="0.5"/>
  <text x="96" y="175" font-family="system-ui" font-size="14" fill="white" text-anchor="middle" opacity="0.8">智能开单</text>
</svg>